<?xml version="1.0" encoding="UTF-8" standalone="no"?>
<svg
   xmlns:dc="http://purl.org/dc/elements/1.1/"
   xmlns:cc="http://creativecommons.org/ns#"
   xmlns:rdf="http://www.w3.org/1999/02/22-rdf-syntax-ns#"
   xmlns:svg="http://www.w3.org/2000/svg"
   xmlns="http://www.w3.org/2000/svg"
   xml:space="preserve"
   viewBox="0 0 50 50"
   y="0px"
   x="0px"
   version="1.1">
   <path
     style="fill:#ffffff"
     d="M 45.7,21.7 C 45.6,21.6 45.5,21.4 45.4,21.3 L 45.1,21 v 0 c -0.2,-0.2 -0.4,-0.4 -0.6,-0.5 3.7,-1.8 4.9,-6.1 4.4,-8.1 -0.3,-1.3 -1.2,-1.6 -1.9,-1.5 l -0.5,0.1 -0.1,0.5 c -0.1,0.9 -0.4,2.3 -1.1,3.2 0.4,-2.5 0,-4.8 -0.8,-6.1 -0.6,-1 -1.6,-1.4 -2.5,-1 l -0.4,0.2 v 0.4 c 0.1,5.5 -0.3,8.6 -2.8,12.7 -2.1,1.6 -5.5,2.7 -7.9,2.4 -2,-0.2 -4.8,-1 -9,-2.7 -0.8,-0.3 -1.7,-0.4 -2.5,-0.4 -1.5,0.1 -3,0.7 -4.1,1.7 -0.5,-0.1 -2.7,-0.7 -4.3,-0.6 -0.7,0 -1.2,0.2 -1.6,0.5 -0.4,0.3 -0.6,0.8 -0.4,1.3 0.4,1 2.3,1.7 3.8,1.6 0.3,0 0.6,-0.1 0.8,-0.1 -0.4,1.3 -0.4,2.7 0,4 0.1,0.4 0.3,0.8 0.5,1.2 -0.1,0.5 -0.5,1.7 -1.4,2.1 v -0.1 c -0.3,-0.4 -0.8,-0.6 -1.4,-0.6 -0.4,0 -0.7,0.1 -1,0.4 -0.3,0.3 -0.6,0.7 -0.6,1.1 v 0.2 c 0,0 -0.1,0 -0.1,0.1 -4,2.8 -4.1,3.5 -4.1,3.7 0,0.2 0.1,0.4 0.2,0.6 0.5,0.5 1.1,0.8 1.8,0.8 0.9,0 1.8,-0.7 2.4,-1.6 0.4,-0.6 0.7,-1.4 0.7,-2 0.3,0.1 0.5,0.2 0.8,0.2 0.2,0 0.3,0 0.5,-0.1 0.6,0.5 1.2,0.8 1.9,1.1 0.7,0.2 1.4,0.3 2.1,0.3 0.8,0 1.5,-0.2 2.3,-0.6 1.1,-0.5 2,-1.3 2.6,-2.3 0.5,-0.1 1,-0.2 1.5,-0.4 1.6,1.1 4.2,1.6 6.5,1.5 1.2,-0.1 2.4,-0.3 3.4,-0.7 0.3,0.6 0.9,1.7 2.2,2.3 0.6,0.3 1.2,0.4 1.8,0.3 0.4,0 0.8,-0.1 1.1,-0.2 0.3,0.5 0.8,0.8 1.4,0.8 -0.2,0.9 0,2 0.4,2.8 0.5,1.1 1.4,1.6 2.4,1.6 0.4,0 0.8,-0.1 1.1,-0.4 0.2,-0.1 0.3,-0.3 0.4,-0.5 0,-0.2 0.2,-1 -2.8,-4.6 0.1,-0.2 0.1,-0.4 0.1,-0.6 -0.1,-0.8 -0.8,-1.4 -1.6,-1.4 h -0.1 c -0.2,0 -0.4,0.1 -0.6,0.2 -0.8,-0.4 -1.3,-1.3 -1.3,-1.3 v -0.1 l -0.1,-0.1 c 0.8,-2.6 3.1,-3.5 4.2,-3.9 0.8,0.3 3.2,1 5,0.1 0.7,-0.3 1.1,-1 1.3,-1.8 0.2,-1.7 -0.4,-3.6 -1.4,-5 z M 9.1,35.6 C 8.7,36.3 8.1,36.7 7.6,36.7 7.4,36.7 7.2,36.6 6.9,36.5 7.3,36 8.4,35.1 9.6,34.3 9.5,34.8 9.4,35.2 9.1,35.6 Z M 12,33.3 c -0.1,0.1 -0.3,0.2 -0.4,0.2 -0.2,0 -0.5,-0.1 -0.6,-0.3 -0.1,-0.2 -0.2,-0.3 -0.2,-0.5 0,-0.2 0.1,-0.4 0.3,-0.5 0.1,-0.1 0.3,-0.2 0.4,-0.2 0.2,0 0.5,0.1 0.6,0.3 0.1,0.2 0.2,0.3 0.2,0.5 -0.1,0.2 -0.2,0.4 -0.3,0.5 z m 27.9,3.4 c 0.9,1.1 1.7,2.3 2,2.8 -0.1,0 -0.2,0.1 -0.3,0.1 v 0 c -0.7,0 -1.1,-0.7 -1.3,-1 -0.4,-0.6 -0.5,-1.3 -0.4,-1.9 z m -1.7,-2.3 c 0.1,-0.1 0.3,-0.2 0.4,-0.2 v 0 c 0.3,0 0.6,0.2 0.7,0.6 0,0.4 -0.2,0.7 -0.6,0.7 -0.4,0 -0.7,-0.2 -0.7,-0.6 0,-0.1 0.1,-0.3 0.2,-0.5 z m 6.7,-17.8 c 1.6,-0.7 2.4,-2.5 2.7,-4.1 v 0.2 c 0.4,1.5 -0.8,5.7 -4.5,7 0.8,-1 1.4,-2 1.8,-3.1 z M 43,8.7 c 0.1,0.1 0.3,0.2 0.5,0.5 1.2,2 1.3,7.6 -2.2,10.5 H 41 c 1.7,-3.4 2.1,-6.4 2,-11 z M 12.8,23.4 C 11.6,23.5 10.5,23 10.3,22.7 v 0 c 0.1,-0.1 0.3,-0.2 0.9,-0.2 1,0 2.3,0.2 3.2,0.4 -0.5,0.4 -1.1,0.5 -1.6,0.5 z M 17.7,34 c -0.8,0.4 -2,0.7 -3.3,0.2 -0.5,-0.2 -0.9,-0.4 -1.3,-0.7 0.1,-0.1 0.1,-0.3 0.1,-0.4 1,-0.4 1.7,-1.2 2.1,-2.1 0.5,0.5 1.1,1 1.8,1.3 0.7,0.3 1.4,0.6 2.2,0.6 -0.6,0.4 -1.1,0.8 -1.6,1.1 z m 2.5,-2.8 c 0,0.1 -0.1,0.3 -0.2,0.4 -0.9,0 -1.7,-0.1 -2.5,-0.5 -1.2,-0.6 -2.1,-1.7 -2.6,-3 -0.4,-1.3 -0.3,-2.6 0.3,-3.9 0.7,0 1.3,0.1 2,0.3 2.6,1 3.9,3.9 3,6.7 z m 1.3,0.2 c 0.9,-3.4 -0.7,-6.8 -3.9,-8 -0.5,-0.2 -1,-0.3 -1.6,-0.4 0.9,-1 2.2,-1.6 3.5,-1.7 0.9,0 1.8,0.1 2.5,0.5 2.5,1.3 3.6,4.4 2.3,6.9 -0.5,1.3 -1.6,2.2 -2.8,2.7 z m 2.1,0.3 c 0.8,-0.6 1.5,-1.4 2,-2.3 1.1,-2.1 0.8,-4.5 -0.4,-6.4 1.8,0.6 3.2,1 4.4,1.3 -0.8,0.8 -1.3,1.8 -1.4,2.9 -0.2,1.4 0.1,2.8 1,4 0.4,0.5 0.9,1 1.4,1.3 -2.3,0.5 -5.1,0.2 -7,-0.8 z m 9.2,0.3 c -1.1,-0.2 -2,-0.7 -2.7,-1.6 -0.6,-0.9 -0.9,-2 -0.7,-3 0.2,-1.2 0.9,-2.2 1.9,-2.9 h 0.9 c 0.4,0 0.8,-0.1 1.2,-0.1 -0.1,2.4 0.5,5.4 1.5,7.4 -0.6,0.2 -1.3,0.3 -2.1,0.2 z m 4.2,2.4 c -0.8,0.2 -1.5,0.2 -2.1,-0.1 -0.5,-0.2 -0.9,-0.7 -1.2,-1 v 0 c 0.6,0 1.3,-0.2 1.8,-0.4 0.2,0.2 0.7,1 1.5,1.5 z m -1.2,-3.9 c -0.7,-1.9 -1.2,-4.4 -1,-6.4 1,-0.3 2.1,-0.6 3,-1.1 -0.1,0.8 0,1.7 0.4,2.6 0.3,0.7 0.8,1.2 1.3,1.6 -1.3,0.6 -2.8,1.5 -3.7,3.3 z m 10,-4.3 c -0.1,0.3 -0.2,0.7 -0.6,0.9 C 43.5,27.9 41,26.9 41,26.8 l -0.2,-0.1 v 0 c -0.3,-0.2 -1.2,-0.8 -1.5,-1.6 -0.7,-1.6 -0.2,-3 1.3,-3.8 1.3,-0.7 2.7,-0.4 3.7,0.7 1.2,1.3 1.7,3.1 1.5,4.2 z m -4,-2.9 c -0.5,0.3 -0.6,0.8 -0.4,1.3 0.3,0.5 0.8,0.6 1.3,0.4 0.5,-0.3 0.6,-0.8 0.4,-1.3 -0.3,-0.4 -0.9,-0.6 -1.3,-0.4 z" />
</svg>